<svg width="399" height="84" viewBox="0 0 399 84" fill="none" xmlns="http://www.w3.org/2000/svg">
<path d="M0 25.2224H25.4226C30.5271 25.2224 31.5279 24.3216 31.5279 19.0169C31.5279 14.5129 30.1267 13.1117 25.3224 13.1117H0V0.100098H25.3225C36.5324 0.100098 44.5395 8.40748 44.5395 19.0169C44.5395 23.5209 43.4385 27.3242 41.3366 30.427C45.04 33.83 47.2418 38.8344 47.2418 44.4394C47.2418 56.5501 39.3349 64.0568 27.8247 64.0568H0V51.0452H27.8247C33.2294 51.0452 34.2304 50.0443 34.2304 44.4394C34.2304 39.7352 32.729 38.2339 27.7246 38.2339H0V25.2224Z" fill="#E0F2FE"/>
<path d="M88.6369 64.0557V60.1523C85.7341 63.155 81.5302 64.5562 75.4252 64.5562C59.2108 64.5562 51.6038 57.0495 51.6038 41.0354V12.0096H64.6153V38.0327C64.6153 47.3409 66.9175 51.7448 73.2227 51.7448H80.8297C87.1356 51.7448 88.6369 47.3409 88.6369 40.2347V12.0096H101.649V64.0557H88.6369Z" fill="#E0F2FE"/>
<path d="M106.14 37.8336C106.14 23.3207 116.048 11.5103 130.661 11.5103C137.267 11.5103 142.472 13.9124 146.275 17.9159V0H159.287V64.0567H146.275V58.1515C142.472 62.2552 137.267 64.6573 130.661 64.6573C116.048 64.6573 106.14 52.7468 106.14 37.8336ZM129.66 51.7459H135.666C142.472 51.7459 146.275 47.5422 146.275 40.8362V34.8309C146.275 28.1249 142.472 23.9213 135.666 23.9213H129.66C122.854 23.9213 118.15 29.1259 118.15 37.8336C118.15 46.5413 122.854 51.7459 129.66 51.7459Z" fill="#E0F2FE"/>
<path d="M163.607 37.8325C163.607 23.3196 173.516 11.5092 188.129 11.5092C194.735 11.5092 199.939 13.9113 203.743 17.9149V12.0096H216.754V60.0522C216.754 74.3649 208.047 83.0726 193.734 83.0726H189.63C174.017 83.0726 166.61 75.6661 166.61 66.0575H179.622C179.622 69.2604 180.823 70.0611 189.63 70.0611H193.734C201.741 70.0611 203.743 68.0592 203.743 60.0521V58.1505C199.939 62.2541 194.735 64.6563 188.129 64.6563C173.516 64.6563 163.607 52.7457 163.607 37.8325ZM187.128 51.7448H193.133C199.939 51.7448 203.743 47.5411 203.743 40.8351V34.8299C203.743 28.1239 199.939 23.9202 193.133 23.9202H187.128C180.322 23.9202 175.618 29.1248 175.618 37.8325C175.618 46.5402 180.322 51.7448 187.128 51.7448Z" fill="#E0F2FE"/>
<path d="M221.075 37.8325C221.075 20.317 230.584 11.5092 247.599 11.5092C264.614 11.5092 274.122 20.317 274.122 37.8325V42.3365H233.586C234.887 48.3418 239.091 51.7448 244.596 51.7448H250.601C254.705 51.7448 258.008 49.8431 260.01 46.4401H273.121C271.019 58.9512 261.511 64.6562 247.599 64.6562C229.883 64.6562 221.075 55.1479 221.075 37.8325ZM261.01 31.3267C259.309 26.6226 255.506 23.9202 250.601 23.9202H244.596C239.692 23.9202 235.888 26.6226 234.187 31.3267H261.01Z" fill="#E0F2FE"/>
<path d="M300.562 64.0568H294.557C284.849 64.0568 278.543 57.7512 278.543 48.0426V0H291.555V12.0106H300.562V25.0222H291.555V48.0426C291.555 51.0453 291.555 51.0453 294.557 51.0453H300.562V64.0568Z" fill="#E0F2FE"/>
<path d="M317.943 0H304.931V8.00709H317.943V0Z" fill="#E0F2FE"/>
<path d="M317.843 64.0567H304.931V12.0106H317.943L317.843 64.0567Z" fill="#E0F2FE"/>
<path d="M322.328 64.0568V16.0142C322.328 6.30566 328.634 0 338.342 0H344.348V13.0116H338.342C335.34 13.0116 335.34 13.0116 335.34 16.0142V17.0151H344.348V30.0267H335.34V64.0567L322.328 64.0568Z" fill="#E0F2FE"/>
<path d="M348.816 41.0354V12.0096H361.828V38.0327C361.828 47.3409 366.132 51.7448 372.437 51.7448H378.042C384.348 51.7448 385.849 47.3409 385.849 40.2347V12.0096H398.861V60.0522C398.861 74.3649 390.153 83.0726 375.84 83.0726H371.737C356.123 83.0726 348.716 75.6661 348.716 66.0576H361.728C361.728 69.2604 362.929 70.0611 371.737 70.0611H375.84C383.847 70.0611 385.849 68.0592 385.849 60.1523C382.946 63.155 378.743 64.5562 372.637 64.5562C356.423 64.5562 348.816 57.0495 348.816 41.0354Z" fill="#E0F2FE"/>
</svg>
