<?xml version="1.0" standalone="no"?>
<!DOCTYPE svg PUBLIC "-//W3C//DTD SVG 20010904//EN"
 "http://www.w3.org/TR/2001/REC-SVG-20010904/DTD/svg10.dtd">
<svg version="1.0" xmlns="http://www.w3.org/2000/svg"
 width="512.000000pt" height="512.000000pt" viewBox="0 0 512.000000 512.000000"
 preserveAspectRatio="xMidYMid meet">

<g transform="translate(0.000000,512.000000) scale(0.100000,-0.100000)"
fill="#000000" stroke="none">
<path d="M3030 5092 c-19 -19 -30 -43 -35 -73 -3 -24 -5 -314 -3 -644 l3 -600
106 -56 c172 -91 289 -178 423 -314 72 -73 197 -234 237 -304 l23 -41 583 0
c625 0 626 0 653 49 13 25 13 104 -1 211 -86 698 -508 1291 -1134 1595 -212
103 -399 160 -628 190 -171 22 -193 21 -227 -13z"/>
<path d="M2115 4489 c-584 -58 -1154 -365 -1523 -821 -181 -223 -334 -514
-412 -782 -160 -555 -107 -1139 152 -1649 399 -785 1224 -1271 2093 -1234 393
17 737 120 1072 319 146 87 175 120 159 182 -3 13 -76 114 -161 224 l-155 200
-82 -55 c-493 -330 -1117 -370 -1651 -106 -510 251 -851 739 -917 1308 -60
531 163 1089 573 1434 279 235 578 358 950 392 l128 12 -3 263 -3 264 -26 26
c-31 31 -70 36 -194 23z"/>
<path d="M2210 3600 c-324 -33 -615 -174 -844 -410 -184 -190 -302 -411 -357
-673 -31 -145 -31 -389 0 -534 55 -262 173 -483 357 -673 262 -270 593 -412
964 -413 290 -1 537 74 770 234 277 189 464 457 553 789 30 112 31 121 31 330
0 209 -1 218 -31 330 -89 332 -276 600 -553 789 -258 177 -584 261 -890 231z
m200 -319 c55 -29 80 -88 80 -185 l0 -82 86 -16 c197 -37 361 -174 338 -282
-18 -85 -67 -126 -151 -126 -44 0 -58 5 -95 35 -100 80 -99 80 -335 80 -199 0
-213 -1 -240 -21 -101 -75 -97 -211 8 -264 34 -18 59 -20 243 -20 114 0 229
-5 258 -11 216 -46 372 -254 355 -473 -17 -226 -177 -389 -414 -421 l-53 -7 0
-82 c0 -67 -4 -91 -23 -126 -54 -103 -196 -107 -257 -8 -16 27 -20 51 -20 124
l0 90 -83 11 c-236 32 -365 153 -299 283 42 84 130 102 235 48 l62 -33 220 0
c202 0 223 2 254 20 55 32 76 69 76 130 0 58 -18 91 -69 129 -25 19 -46 21
-274 27 -198 4 -256 9 -292 23 -112 42 -212 135 -263 244 -30 64 -32 73 -32
187 0 114 2 123 32 188 65 137 200 235 357 258 l76 11 0 92 c0 73 4 97 20 124
42 68 129 91 200 53z"/>
<path d="M3993 2338 c11 -199 -23 -440 -90 -632 -29 -85 -33 -104 -22 -121 24
-38 377 -490 395 -506 56 -48 109 -27 228 93 258 262 429 583 496 937 12 61
22 144 23 186 2 69 0 76 -26 102 l-27 28 -492 3 -491 3 6 -93z"/>
</g>
</svg>
