<svg width="16" height="16" viewBox="0 0 16 16" fill="none" xmlns="http://www.w3.org/2000/svg">
<path d="M10.4721 0.0869942C10.4106 0.146383 10.375 0.221401 10.3588 0.315172C10.349 0.39019 10.3426 1.29665 10.349 2.32814L10.3588 4.20358L10.7021 4.37862C11.2591 4.66306 11.6381 4.935 12.0721 5.3601C12.3053 5.58828 12.7101 6.09152 12.8397 6.31032L12.9142 6.43848H14.8024C16.8266 6.43848 16.8298 6.43848 16.9173 6.28532C16.9594 6.20717 16.9594 5.96024 16.914 5.62579C16.6355 3.44403 15.2687 1.59047 13.2413 0.640248C12.5546 0.318298 11.949 0.140132 11.2073 0.0463597C10.6535 -0.0224063 10.5822 -0.0192806 10.4721 0.0869942Z" fill="#FBBF24"/>
<path d="M7.50867 1.97181C5.61723 2.1531 3.77113 3.1127 2.57602 4.53803C1.9898 5.23507 1.49427 6.14466 1.24164 6.98235C0.723441 8.71713 0.895096 10.5426 1.73394 12.1367C3.02621 14.5904 5.69819 16.1095 8.51269 15.9938C9.78552 15.9407 10.8997 15.6187 11.9847 14.9967C12.4575 14.7248 12.5514 14.6216 12.4996 14.4278C12.4899 14.3872 12.2535 14.0715 11.9782 13.7277L11.4762 13.1025L11.2106 13.2744C9.61387 14.3059 7.59288 14.431 5.86337 13.6058C4.2116 12.8212 3.10718 11.2959 2.89342 9.51732C2.69909 7.85756 3.42134 6.1134 4.74923 5.03503C5.65285 4.30048 6.62124 3.91601 7.82607 3.80974L8.24063 3.77223L8.23091 2.95016L8.2212 2.12497L8.13699 2.0437C8.03659 1.94681 7.91028 1.93118 7.50867 1.97181Z" fill="#FBBF24"/>
<path d="M7.81639 4.75059C6.76702 4.85374 5.82454 5.29446 5.08286 6.03214C4.48693 6.62602 4.10475 7.31681 3.92662 8.13575C3.82622 8.58898 3.82622 9.35166 3.92662 9.80489C4.10475 10.6238 4.48693 11.3146 5.08286 11.9085C5.93142 12.7525 7.00345 13.1963 8.20504 13.1994C9.14428 13.2026 9.94426 12.9681 10.6989 12.468C11.596 11.8772 12.2017 11.0396 12.4899 10.0018C12.5871 9.65173 12.5903 9.6236 12.5903 8.97032C12.5903 8.31704 12.5871 8.28891 12.4899 7.93883C12.2017 6.90109 11.596 6.06339 10.6989 5.47263C9.86329 4.91938 8.80745 4.65681 7.81639 4.75059ZM8.46414 5.74769C8.64227 5.83834 8.72324 6.02276 8.72324 6.32595V6.58226L9.00178 6.63228C9.63981 6.74793 10.171 7.17615 10.0965 7.51373C10.0382 7.77942 9.87948 7.90757 9.60743 7.90757C9.46492 7.90757 9.41958 7.89194 9.29974 7.79817C8.97587 7.54811 8.9791 7.54811 8.21475 7.54811C7.57024 7.54811 7.5249 7.55124 7.43745 7.61375C7.11033 7.84818 7.12329 8.27328 7.46336 8.43895C7.57348 8.49521 7.65445 8.50146 8.25038 8.50146C8.6196 8.50146 8.99206 8.51709 9.08598 8.53584C9.78556 8.67963 10.2908 9.32978 10.2357 10.0143C10.1807 10.7207 9.66249 11.2302 8.8949 11.3302L8.72324 11.3521V11.6084C8.72324 11.8179 8.71029 11.8929 8.64875 12.0023C8.47386 12.3242 8.01395 12.3367 7.81639 12.0273C7.76456 11.9429 7.75161 11.8679 7.75161 11.6397V11.3584L7.48279 11.324C6.71844 11.224 6.30064 10.8458 6.5144 10.4394C6.65043 10.1769 6.93544 10.1206 7.27551 10.2894L7.47631 10.3925H8.18884C8.84308 10.3925 8.91109 10.3863 9.01149 10.33C9.18962 10.23 9.25764 10.1143 9.25764 9.92367C9.25764 9.74238 9.19934 9.63923 9.03416 9.52045C8.95319 9.46106 8.88518 9.45481 8.14674 9.43605C7.50546 9.42355 7.31761 9.40792 7.20102 9.36416C6.83828 9.23288 6.5144 8.94219 6.34922 8.60148C6.25206 8.40144 6.24558 8.37331 6.24558 8.01697C6.24558 7.66064 6.25206 7.63251 6.34922 7.42934C6.55974 7.00111 6.99698 6.69479 7.50546 6.6229L7.75161 6.58852V6.30095C7.75161 6.07277 7.76456 5.99775 7.81639 5.91336C7.95241 5.70081 8.23419 5.62892 8.46414 5.74769Z" fill="#FBBF24"/>
<path d="M13.5911 8.69524C13.6267 9.31727 13.5166 10.0706 13.2996 10.6707C13.2056 10.9364 13.1927 10.9958 13.2283 11.0489C13.306 11.1677 14.4493 12.5805 14.5076 12.6305C14.689 12.7806 14.8607 12.7149 15.2461 12.3398C16.0817 11.5209 16.6355 10.5175 16.8525 9.41104C16.8914 9.22037 16.9238 8.96093 16.927 8.82965C16.9335 8.61398 16.927 8.5921 16.8428 8.51083L16.7553 8.42331L15.1619 8.41393L13.5716 8.40455L13.5911 8.69524Z" fill="#FBBF24"/>
</svg>
