<svg width="64" height="64" viewBox="0 0 64 64" fill="none" xmlns="http://www.w3.org/2000/svg">
<path d="M39.0431 0.347977C38.797 0.585532 38.6545 0.885602 38.5897 1.26069C38.5508 1.56076 38.5249 5.18661 38.5508 9.31257L38.5897 16.8143L39.9629 17.5145C42.1912 18.6522 43.707 19.74 45.4429 21.4404C46.3757 22.3531 47.9951 24.3661 48.5133 25.2413L48.8113 25.7539H56.3641C64.461 25.7539 64.474 25.7539 64.8238 25.1413C64.9922 24.8287 64.9922 23.841 64.8108 22.5031C63.6967 13.7761 58.2296 6.36188 50.1197 2.56099C47.3733 1.27319 44.9506 0.560526 41.9839 0.185439C39.7686 -0.0896253 39.4836 -0.0771224 39.0431 0.347977Z" fill="#FBBF24"/>
<path d="M27.1892 7.88724C19.6234 8.61241 12.239 12.4508 7.45862 18.1521C5.11374 20.9403 3.13162 24.5786 2.12112 27.9294C0.0483046 34.8685 0.734924 42.1702 4.09029 48.5467C9.25937 58.3615 19.9473 64.4379 31.2053 63.9753C36.2966 63.7628 40.7532 62.475 45.0931 59.9869C46.9846 58.8991 47.3603 58.4865 47.153 57.7114C47.1141 57.5488 46.1684 56.286 45.0672 54.9107L43.0592 52.4101L41.9969 53.0978C35.61 57.2238 27.526 57.7239 20.608 54.4231C14.0009 51.2849 9.58325 45.1834 8.72821 38.0693C7.95091 31.4302 10.8399 24.4536 16.1515 20.1401C19.7659 17.2019 23.6395 15.6641 28.4588 15.239L30.1171 15.0889L30.0782 11.8007L30.0393 8.49989L29.7025 8.17481C29.3009 7.78722 28.7956 7.72471 27.1892 7.88724Z" fill="#FBBF24"/>
<path d="M28.42 19.0023C24.2225 19.4149 20.4526 21.1779 17.4859 24.1285C15.1021 26.5041 13.5734 29.2672 12.8609 32.543C12.4593 34.3559 12.4593 37.4066 12.8609 39.2196C13.5734 42.4953 15.1021 45.2585 17.4859 47.634C20.8801 51.0098 25.1682 52.7852 29.9746 52.7977C33.7315 52.8102 36.9315 51.8725 39.95 49.872C43.5385 47.509 45.9612 44.1582 47.1142 40.0072C47.5028 38.6069 47.5158 38.4944 47.5158 35.8813C47.5158 33.2682 47.5028 33.1556 47.1142 31.7553C45.9612 27.6044 43.5385 24.2536 39.95 21.8905C36.6076 19.6775 32.3842 18.6273 28.42 19.0023ZM31.011 22.9908C31.7235 23.3534 32.0474 24.091 32.0474 25.3038V26.3291L33.1615 26.5291C35.7137 26.9917 37.8383 28.7046 37.5403 30.0549C37.3072 31.1177 36.6724 31.6303 35.5841 31.6303C35.0141 31.6303 34.8327 31.5678 34.3534 31.1927C33.0579 30.1925 33.0708 30.1925 30.0134 30.1925C27.4354 30.1925 27.254 30.205 26.9042 30.455C25.5958 31.3927 25.6476 33.0931 27.0079 33.7558C27.4483 33.9808 27.7722 34.0058 30.1559 34.0058C31.6328 34.0058 33.1227 34.0684 33.4984 34.1434C36.2967 34.7185 38.3176 37.3191 38.0974 40.0573C37.8772 42.8829 35.8044 44.9209 32.734 45.321L32.0474 45.4085V46.4337C32.0474 47.2714 31.9956 47.5715 31.7494 48.0091C31.0498 49.2969 29.2102 49.3469 28.42 48.1091C28.2127 47.7716 28.1609 47.4715 28.1609 46.5588V45.4335L27.0856 45.296C24.0282 44.8959 22.357 43.383 23.212 41.7577C23.7561 40.7074 24.8962 40.4824 26.2565 41.1575L27.0597 41.5701H29.9098C32.5267 41.5701 32.7988 41.5451 33.2004 41.3201C33.9129 40.92 34.185 40.4573 34.185 39.6947C34.185 38.9695 33.9518 38.5569 33.2911 38.0818C32.9672 37.8442 32.6951 37.8192 29.7414 37.7442C27.1763 37.6942 26.4249 37.6317 25.9585 37.4566C24.5075 36.9315 23.212 35.7688 22.5513 34.4059C22.1627 33.6058 22.1367 33.4932 22.1367 32.0679C22.1367 30.6426 22.1627 30.53 22.5513 29.7173C23.3934 28.0044 25.1423 26.7792 27.1763 26.4916L28.1609 26.3541V25.2038C28.1609 24.2911 28.2127 23.991 28.42 23.6534C28.9641 22.8032 30.0912 22.5157 31.011 22.9908Z" fill="#FBBF24"/>
<path d="M51.5189 34.781C51.6614 37.2691 51.2209 40.2823 50.3529 42.6829C49.9772 43.7456 49.9254 43.9832 50.0679 44.1957C50.3789 44.6708 54.952 50.3222 55.1852 50.5222C55.9107 51.1224 56.5973 50.8598 58.139 49.3594C61.4814 46.0837 63.6967 42.0702 64.5647 37.6442C64.7201 36.8815 64.8497 35.8438 64.8626 35.3187C64.8886 34.456 64.8626 34.3684 64.5258 34.0434L64.176 33.6933L57.8021 33.6558L51.4412 33.6183L51.5189 34.781Z" fill="#FBBF24"/>
</svg>
