<svg width="32" height="32" viewBox="0 0 32 32" fill="none" xmlns="http://www.w3.org/2000/svg">
<path d="M19.9958 0.173988C19.8727 0.292766 19.8015 0.442801 19.7691 0.630345C19.7497 0.78038 19.7367 2.5933 19.7497 4.65628L19.7691 8.40716L20.4557 8.75724C21.5699 9.32612 22.3277 9.87 23.1957 10.7202C23.6621 11.1766 24.4718 12.183 24.7309 12.6206L24.8799 12.877H28.6563C32.7047 12.877 32.7112 12.877 32.8861 12.5706C32.9703 12.4143 32.9703 11.9205 32.8796 11.2516C32.3226 6.88806 29.5891 3.18094 25.5341 1.2805C24.1609 0.636596 22.9496 0.280263 21.4662 0.0927194C20.3585 -0.0448126 20.216 -0.0385612 19.9958 0.173988Z" fill="#FBBF24"/>
<path d="M14.0689 3.94362C10.286 4.30621 6.59376 6.2254 4.20355 9.07607C3.03112 10.4701 2.04005 12.2893 1.5348 13.9647C0.498395 17.4343 0.841705 21.0851 2.51939 24.2734C5.10393 29.1808 10.4479 32.219 16.0769 31.9877C18.6226 31.8814 20.8508 31.2375 23.0208 29.9934C23.9665 29.4496 24.1544 29.2433 24.0507 28.8557C24.0313 28.7744 23.5585 28.143 23.0079 27.4554L22.0038 26.2051L21.4727 26.5489C18.2793 28.6119 14.2373 28.8619 10.7783 27.2116C7.47471 25.6424 5.26587 22.5917 4.83835 19.0346C4.4497 15.7151 5.89419 12.2268 8.54998 10.0701C10.3572 8.60096 12.294 7.83203 14.7036 7.61948L15.5328 7.54446L15.5133 5.90033L15.4939 4.24994L15.3255 4.08741C15.1247 3.89361 14.8721 3.86235 14.0689 3.94362Z" fill="#FBBF24"/>
<path d="M14.6842 9.50117C12.5855 9.70747 10.7005 10.5889 9.21718 12.0643C8.02531 13.252 7.26096 14.6336 6.90469 16.2715C6.70389 17.178 6.70389 18.7033 6.90469 19.6098C7.26096 21.2477 8.02531 22.6292 9.21718 23.817C10.9143 25.5049 13.0584 26.3926 15.4615 26.3989C17.34 26.4051 18.94 25.9363 20.4492 24.936C22.2435 23.7545 23.4548 22.0791 24.0313 20.0036C24.2256 19.3035 24.2321 19.2472 24.2321 17.9406C24.2321 16.6341 24.2256 16.5778 24.0313 15.8777C23.4548 13.8022 22.2435 12.1268 20.4492 10.9453C18.778 9.83875 16.6664 9.31363 14.6842 9.50117ZM15.9797 11.4954C16.336 11.6767 16.4979 12.0455 16.4979 12.6519V13.1645L17.055 13.2646C18.3311 13.4959 19.3934 14.3523 19.2444 15.0275C19.1278 15.5588 18.8104 15.8151 18.2663 15.8151C17.9813 15.8151 17.8906 15.7839 17.6509 15.5963C17.0032 15.0962 17.0097 15.0962 15.481 15.0962C14.1919 15.0962 14.1012 15.1025 13.9264 15.2275C13.2721 15.6964 13.298 16.5466 13.9782 16.8779C14.1984 16.9904 14.3603 17.0029 15.5522 17.0029C16.2907 17.0029 17.0356 17.0342 17.2234 17.0717C18.6226 17.3593 19.6331 18.6596 19.5229 20.0286C19.4128 21.4415 18.3764 22.4604 16.8412 22.6605L16.4979 22.7043V23.2169C16.4979 23.6357 16.472 23.7858 16.349 24.0046C15.9992 24.6485 15.0794 24.6735 14.6842 24.0546C14.5806 23.8858 14.5547 23.7357 14.5547 23.2794V22.7168L14.017 22.648C12.4883 22.4479 11.6527 21.6915 12.0803 20.8788C12.3523 20.3537 12.9223 20.2412 13.6025 20.5788L14.0041 20.7851H15.4291C16.7376 20.7851 16.8736 20.7726 17.0744 20.66C17.4307 20.46 17.5667 20.2287 17.5667 19.8473C17.5667 19.4848 17.4501 19.2785 17.1198 19.0409C16.9578 18.9221 16.8218 18.9096 15.3449 18.8721C14.0624 18.8471 13.6867 18.8158 13.4535 18.7283C12.728 18.4658 12.0803 17.8844 11.7499 17.203C11.5556 16.8029 11.5426 16.7466 11.5426 16.0339C11.5426 15.3213 11.5556 15.265 11.7499 14.8587C12.1709 14.0022 13.0454 13.3896 14.0624 13.2458L14.5547 13.177V12.6019C14.5547 12.1455 14.5806 11.9955 14.6842 11.8267C14.9563 11.4016 15.5198 11.2578 15.9797 11.4954Z" fill="#FBBF24"/>
<path d="M26.2337 17.3905C26.3049 18.6345 26.0847 20.1411 25.6507 21.3414C25.4629 21.8728 25.437 21.9916 25.5082 22.0978C25.6637 22.3354 27.9502 25.1611 28.0668 25.2611C28.4296 25.5611 28.7729 25.4299 29.5437 24.6797C31.2149 23.0418 32.3226 21.0351 32.7566 18.8221C32.8343 18.4407 32.8991 17.9219 32.9056 17.6593C32.9185 17.228 32.9056 17.1842 32.7371 17.0217L32.5623 16.8466L29.3753 16.8279L26.1948 16.8091L26.2337 17.3905Z" fill="#FBBF24"/>
</svg>
