<?xml version="1.0" encoding="utf-8"?>
<svg id="svg268312" viewBox="0 0 1024 768" height="768px" width="1024px" version="1.1" xmlns="http://www.w3.org/2000/svg">
  <g id="title" style="font-style:normal;font-weight:normal;font-size:72px;line-height:1;font-family:'Brandmark Sans 30 Color';font-variant-ligatures:normal;text-align:center;text-anchor:middle" transform="matrix(1, 0, 0, 1, -165.947617, -343.01825)">
    <g id="path268321" aria-label="B" transform="translate(0 310.438) translate(165.5 32.12888) scale(1.39) translate(-368.52931 46.008)">
      <path class="c1" d="M83.00844,94.38141h18.28961c3.6723,0,4.39233-0.64804,4.39233-4.46439 c0-3.2403-1.00806-4.24835-4.46436-4.24835H83.00844v-9.36084h18.21759c8.0647,0,13.8252,5.97653,13.8252,13.60919 c0,3.2403-0.79205,5.9765-2.3042,8.20871c2.66425,2.44821,4.24835,6.04852,4.24835,10.08087 c0,8.71274-5.68848,14.11322-13.96918,14.11322H83.00844v-9.36081h20.01776c3.88831,0,4.6084-0.72006,4.6084-4.75241 c0-3.38431-1.08014-4.46439-4.68042-4.46439H83.00844V94.38141z" transform="translate(285.52087 -122.31583)" stroke-width="0" stroke-linejoin="miter" stroke-miterlimit="2" fill="#824832" stroke="#824832"/>
    </g>
    <g id="path268323" aria-label="u" transform="translate(0 310.438) translate(217.10375000000005 44.0384) scale(1.39) translate(-405.65431 37.44)">
      <path class="c1" d="M108.64308,122.31979v-2.80823c-2.08838,2.16022-5.11279,3.16827-9.50488,3.16827 c-11.66504,0-17.1377-5.40045-17.1377-16.92145V84.87655h9.36084v18.72168c0,6.69653,1.65625,9.86481,6.19238,9.86481h5.47266 c4.53662,0,5.6167-3.16827,5.6167-8.2807V84.87655h9.36084v37.44324H108.64308z" transform="translate(323.65381 -122.31655)" stroke-width="0" stroke-linejoin="miter" stroke-miterlimit="2" fill="#824832" stroke="#824832"/>
    </g>
    <g id="path268325" aria-label="d" transform="translate(0 310.438) translate(271.63953820000006 32.028800000000004) scale(1.39) translate(-444.88869 46.08)">
      <path class="c1" d="M80.88423,103.45419c0-10.44092,7.1286-18.93762,17.64154-18.93762 c4.75238,0,8.4967,1.72815,11.23297,4.6084V76.2358h9.36078v46.08398h-9.36078v-4.24835 c-2.73627,2.95227-6.48059,4.68042-11.23297,4.68042C88.01283,122.75185,80.88423,114.18313,80.88423,103.45419z M97.80568,113.46304h4.32037c4.89642,0,7.63269-3.02423,7.63269-7.84869v-4.32031c0-4.82446-2.73627-7.84869-7.63269-7.84869 h-4.32037c-4.89642,0-8.2807,3.74432-8.2807,10.00885S92.90926,113.46304,97.80568,113.46304z" transform="translate(364.00446 -122.3158)" stroke-width="0" stroke-linejoin="miter" stroke-miterlimit="2" fill="#824832" stroke="#824832"/>
    </g>
    <g id="path268327" aria-label="g" transform="translate(0 310.438) translate(329.1073507000001 43.538000000000004) scale(1.39) translate(-486.23244 37.8)">
      <path class="c1" d="M80.88429,103.45419c0-10.44092,7.12866-18.93762,17.6416-18.93762 c4.75232,0,8.49658,1.72815,11.23291,4.6084v-4.24841h9.36084v34.56299c0,10.29694-6.26465,16.56146-16.56152,16.56146h-2.95215 c-11.23303,0-16.56152-5.32843-16.56152-12.24104h9.36084c0,2.3042,0.86401,2.88025,7.20068,2.88025h2.95215 c5.7605,0,7.20068-1.44019,7.20068-7.20068v-1.3681c-2.73633,2.95227-6.48059,4.68042-11.23291,4.68042 C88.01295,122.75185,80.88429,114.18313,80.88429,103.45419z M97.80568,113.46304h4.32043 c4.89636,0,7.63269-3.02423,7.63269-7.84869v-4.32031c0-4.82446-2.73633-7.84869-7.63269-7.84869h-4.32043 c-4.89636,0-8.28064,3.74432-8.28064,10.00885S92.90932,113.46304,97.80568,113.46304z" transform="translate(405.34815 -122.31657)" stroke-width="0" stroke-linejoin="miter" stroke-miterlimit="2" fill="#824832" stroke="#824832"/>
    </g>
    <g id="path268329" aria-label="e" transform="translate(0 310.438) translate(386.57516320000013 43.538000000000004) scale(1.39) translate(-527.57619 37.8)">
      <path class="c1" d="M80.92043,103.45419c0-12.60107,6.84058-18.93762,19.08179-18.93762 c12.24097,0,19.08154,6.33655,19.08154,18.93762v3.2403H89.92128c0.93604,4.32037,3.96033,6.76855,7.92065,6.76855h4.32043 c2.95215,0,5.32837-1.3681,6.76855-3.81635h9.43286c-1.51221,9.00079-8.35278,13.10516-18.36157,13.10516 C87.2571,122.75185,80.92043,115.91128,80.92043,103.45419z M109.65089,98.77377c-1.224-3.38428-3.96021-5.32843-7.48853-5.32843 h-4.32043c-3.52832,0-6.26453,1.94415-7.48865,5.32843H109.65089z" transform="translate(446.65576 -122.31657)" stroke-width="0" stroke-linejoin="miter" stroke-miterlimit="2" fill="#824832" stroke="#824832"/>
    </g>
    <g id="path268331" aria-label="t" transform="translate(0 310.438) translate(444.04297570000017 32.028800000000004) scale(1.39) translate(-568.91994 46.08)">
      <path class="c1" d="M107.92189,122.31979h-4.32031c-6.98438,0-11.521-4.53638-11.521-11.521v-34.563h9.36084v8.64075h6.48047 v9.36084h-6.48047v16.5614c0,2.16022,0,2.16022,2.16016,2.16022h4.32031V122.31979z" transform="translate(476.83936 -122.31579)" stroke-width="0" stroke-linejoin="miter" stroke-miterlimit="2" fill="#824832" stroke="#824832"/>
    </g>
    <g id="path268333" aria-label="i" transform="translate(0 310.438) translate(470.43125000000015 32.028800000000004) scale(1.39) translate(-587.90431 46.08)">
      <rect x="95.32033" y="76.2358" class="c3" width="9.36084" height="5.7605" transform="translate(492.583982 -122.315802)" stroke-width="0" stroke-linejoin="miter" stroke-miterlimit="2" fill="#c7a290" stroke="#c7a290"/>
      <polygon class="c1" points="104.60915,122.31979 95.32033,122.31979 95.32033,84.87655 104.68117,84.87655 " transform="translate(492.583982 -122.315802)" stroke-width="0" stroke-linejoin="miter" stroke-miterlimit="2" fill="#824832" stroke="#824832"/>
    </g>
    <g id="path268335" aria-label="f" transform="translate(0 310.438) translate(487.82797570000014 32.028800000000004) scale(1.39) translate(-600.41994 46.08)">
      <path class="c1" d="M92.08046,122.31979v-34.563c0-6.98456,4.53638-11.521,11.521-11.521h4.32043v9.36084h-4.32043 c-2.16016,0-2.16016,0-2.16016,2.16016v0.72009h6.48059v9.36084h-6.48059v24.48206h-9.36084V122.31979z" transform="translate(508.33948 -122.31579)" stroke-width="0" stroke-linejoin="miter" stroke-miterlimit="2" fill="#824832" stroke="#824832"/>
    </g>
    <g id="path268337" aria-label="y" transform="translate(0 310.438) translate(514.2162500000002 44.0384) scale(1.39) translate(-619.40431 37.44)">
      <path class="c1" d="M82.03615,105.75838V84.87655h9.36084v18.72168c0,6.69653,3.09668,9.86481,7.63281,9.86481h4.03223 c4.53662,0,5.6167-3.16827,5.6167-8.2807V84.87655h9.36084v34.56299c0,10.29694-6.26465,16.56147-16.56152,16.56147h-2.95215 c-11.23291,0-16.56152-5.32843-16.56152-12.24104h9.36084c0,2.3042,0.86426,2.88025,7.20068,2.88025h2.95215 c5.76025,0,7.20068-1.44019,7.20068-7.12866c-2.08838,2.16022-5.1123,3.16827-9.50488,3.16827 C87.5088,122.67983,82.03615,117.27938,82.03615,105.75838z" transform="translate(537.43993 -122.31655)" stroke-width="0" stroke-linejoin="miter" stroke-miterlimit="2" fill="#824832" stroke="#824832"/>
    </g>
  </g>
</svg>